# xmcd
#
# Track frame offsets:
#	150
#	13987
#	32479
#	62821
#	77528
#	90529
#	108021
#
# Disc length: 2124 seconds
#
# Revision: 1
# Processed by: cddbd v1.5.1PL2 Copyright (c) Steve Scherf et al.
# Submitted via: EasyCDDAExtractor 9.0.0.1
#
DISCID=47084a07
DTITLE=Alice Cooper - Crescent City xx-05-73
DYEAR=1973
DGENRE=Hard Rock
TTITLE0=Hello Hooray
TTITLE1=Billion Dollar Babies
TTITLE2=Elected - I'm Eighteen
TTITLE3=Sick Things
TTITLE4=Dead Babies
TTITLE5=I Love The Dead
TTITLE6=School's Out
EXTD=
EXTT0=
EXTT1=
EXTT2=
EXTT3=
EXTT4=
EXTT5=
EXTT6=
PLAYORDER=
